Coordinates
version=1
nRows=9
nColumns=24
inDegrees=yes

Units are S.I. units (second, meters, Newtons, ...)
Angles are in degrees.

endheader
time	pelvis_tilt	pelvis_list	pelvis_rotation	pelvis_tx	pelvis_ty	pelvis_tz	hip_flexion_r	hip_adduction_r	hip_rotation_r	knee_angle_r	ankle_angle_r	subtalar_angle_r	mtp_angle_r	hip_flexion_l	hip_adduction_l	hip_rotation_l	knee_angle_l	ankle_angle_l	subtalar_angle_l	mtp_angle_l	lumbar_extension	lumbar_bending	lumbar_rotation
      0.89200000	     -2.45395422	     -2.82732586	      0.21540136	     -0.16330999	      1.05001805	      0.31805686	     -4.85690255	      7.77833190	     -0.31830623	    -16.97347724	     12.47981891	    -11.65893273	     -2.93524724	     23.83976627	     -0.62177136	     -4.84457659	     -1.27733879	      7.05335377	      8.66102828	     -0.89499856	      4.42388214	      6.31927791	     -0.57059330
      0.89616667	     -2.41945882	     -2.85464581	      0.26870234	     -0.15722734	      1.04955804	      0.31775319	     -4.89660267	      7.74102148	     -0.69791265	    -17.67225596	     12.46063816	    -10.97864454	     -2.93470265	     23.80720298	     -0.57654094	     -4.51875921	     -1.68379191	      7.14497710	      8.85974131	     -0.90665604	      4.39003682	      6.40204770	     -0.52780374
      0.90033333	     -2.39221747	     -2.86867425	      0.19956355	     -0.15116591	      1.04916091	      0.31777653	     -4.90362716	      7.69589414	     -0.85039493	    -18.42785538	     12.36738932	    -10.81073387	     -2.93187843	     23.76341429	     -0.58598538	     -4.37676714	     -2.11517410	      7.10098446	      8.86976966	     -0.90909611	      4.33019844	      6.33593985	     -0.51102417
      0.90450000	     -2.30766616	     -2.89904145	      0.24603629	     -0.14510849	      1.04882334	      0.31755511	     -4.94904306	      7.65854707	     -1.17234295	    -19.20479094	     12.20134467	    -10.22540886	     -2.91292479	     23.67438195	     -0.55867971	     -4.12353548	     -2.59960327	      7.01599621	      8.79859235	     -0.91006240	      4.32817976	      6.37980107	     -0.45652131
      0.90866667	     -2.24620304	     -2.87529174	      0.20528945	     -0.13890547	      1.04853760	      0.31732490	     -4.94049448	      7.53076261	     -1.47504861	    -20.07124494	     12.14124685	     -9.60197724	     -2.86445637	     23.53917749	     -0.49127353	     -3.79514350	     -3.00997747	      6.86746011	      8.48887662	     -0.90326182	      4.32398504	      6.37837721	     -0.38883781
      0.91283333	     -2.20240758	     -2.85902579	      0.13704206	     -0.13277930	      1.04824714	      0.31729708	     -4.87274712	      7.42453508	     -1.72411470	    -21.00111675	     11.94969698	     -9.44446271	     -2.84902678	     23.45011904	     -0.46553899	     -3.72654806	     -3.50055115	      6.76263278	      8.40003261	     -0.89970473	      4.25356717	      6.30354321	     -0.36937636
      0.91700000	     -2.09427670	     -2.82508740	      0.14983932	     -0.12658474	      1.04806034	      0.31686849	     -4.84978289	      7.25876833	     -2.14025366	    -21.97292762	     11.80487698	     -8.59336670	     -2.71701676	     23.24447002	     -0.35394414	     -3.28611338	     -3.90551619	      6.41940070	      7.67783894	     -0.86100851	      4.22920391	      6.27378719	     -0.25585762
      0.92116667	     -2.04017894	     -2.79091273	      0.07144583	     -0.12040540	      1.04785469	      0.31680593	     -4.72782742	      7.10994760	     -2.41550092	    -23.01860304	     11.49654090	     -8.43568042	     -2.69516387	     23.11418052	     -0.31142938	     -3.27025885	     -4.38174598	      6.28396673	      7.60597302	     -0.85391702	      4.16430149	      6.23189081	     -0.24895339
      0.92533333	     -1.98757104	     -2.74086913	      0.01847883	     -0.11420545	      1.04766832	      0.31664838	     -4.56872954	      6.92870438	     -2.75543682	    -24.11852595	     11.06191652	     -8.10026781	     -2.66242346	     22.97659172	     -0.23598344	     -3.24223082	     -4.84911061	      6.05810267	      7.44665782	     -0.84504225	      4.09959547	      6.16612938	     -0.22262218
